<svg width="50" height="50" viewBox="0 0 50 50" fill="none" xmlns="http://www.w3.org/2000/svg">
<circle cx="25" cy="25" r="25" fill="#FFD102"/>
<path fill-rule="evenodd" clip-rule="evenodd" d="M20.7616 32.2411C21.1523 32.2411 21.4699 32.5587 21.4699 32.9494C21.4699 33.3402 21.1523 33.6568 20.7616 33.6568C20.3709 33.6568 20.0542 33.3402 20.0542 32.9494C20.0542 32.5587 20.3709 32.2411 20.7616 32.2411Z" stroke="#1E1B26" stroke-width="1.81818" stroke-linecap="round" stroke-linejoin="round"/>
<path fill-rule="evenodd" clip-rule="evenodd" d="M31.1805 32.2411C31.5712 32.2411 31.8888 32.5587 31.8888 32.9494C31.8888 33.3402 31.5712 33.6568 31.1805 33.6568C30.7898 33.6568 30.4722 33.3402 30.4722 32.9494C30.4722 32.5587 30.7898 32.2411 31.1805 32.2411Z" stroke="#1E1B26" stroke-width="1.81818" stroke-linecap="round" stroke-linejoin="round"/>
<path d="M16.4351 16.8982L18.361 17.2315L19.2527 27.8547C19.3249 28.7204 20.048 29.3852 20.9165 29.3852H31.0202C31.8499 29.3852 32.5536 28.776 32.673 27.9537L33.5517 21.8815C33.6601 21.1325 33.0795 20.4621 32.323 20.4621H18.6702" stroke="#1E1B26" stroke-width="1.81818" stroke-linecap="round" stroke-linejoin="round"/>
<path d="M26.9683 23.8843H29.5359" stroke="#1E1B26" stroke-width="1.81818" stroke-linecap="round" stroke-linejoin="round"/>
</svg>
